<?xml version="1.0" standalone="no"?><svg xmlns="http://www.w3.org/2000/svg" viewBox="0 0 1440 320"><path fill="#1a1a1a" fill-opacity="1" d="M0,32L21.8,32C43.6,32,87,32,131,37.3C174.5,43,218,53,262,64C305.5,75,349,85,393,117.3C436.4,149,480,203,524,202.7C567.3,203,611,149,655,160C698.2,171,742,245,785,250.7C829.1,256,873,192,916,154.7C960,117,1004,107,1047,138.7C1090.9,171,1135,245,1178,245.3C1221.8,245,1265,171,1309,122.7C1352.7,75,1396,53,1418,42.7L1440,32L1440,320L1418.2,320C1396.4,320,1353,320,1309,320C1265.5,320,1222,320,1178,320C1134.5,320,1091,320,1047,320C1003.6,320,960,320,916,320C872.7,320,829,320,785,320C741.8,320,698,320,655,320C610.9,320,567,320,524,320C480,320,436,320,393,320C349.1,320,305,320,262,320C218.2,320,175,320,131,320C87.3,320,44,320,22,320L0,320Z"></path></svg>